<svg xmlns="http://www.w3.org/2000/svg" viewBox="0 0 311.81 172.92"><defs><style>.cls-1{fill:none;}.cls-2{fill:#fff;}.cls-3{fill:#e10;}</style></defs><g id="Layer_2" data-name="Layer 2"><g id="Artwork"><g id="Red_Outline" data-name="Red Outline"><rect class="cls-1" width="311.81" height="172.92"/><path class="cls-2" d="M80.54,72.77C63.75,84.34,52,100,52,100l22,14.9L76,110c5.24,10.79,16.48,13.69,22.76,13.53H212.91c6.36.18,17.71-2.68,23-13.46.18.45,1.91,4.64,1.91,4.64l22-14.73s-12-15.65-28.88-27.2a132.8,132.8,0,0,0-150.42,0Z"/><polygon class="cls-3" points="122.27 84.59 124.18 80.51 99.75 80.51 97.84 84.59 107.3 84.59 97.5 104.52 103.83 104.52 113.63 84.59 122.27 84.59"/><path class="cls-3" d="M210.51,97.91c-1.81,2.55-4.39,3.85-5.75,2.89s-1-3.82.84-6.38,4.39-3.85,5.75-2.89S212.33,95.35,210.51,97.91Zm-21.39-.1c-1.82,2.56-4.39,3.85-5.75,2.9s-1-3.83.84-6.39,4.39-3.85,5.75-2.89,1,3.82-.84,6.38M162.55,96a9.45,9.45,0,0,1,5-5.57s1.09-.37,1.67.11c0,0,.82.79-.16,2.25a12.33,12.33,0,0,1-5.24,4.45s-2.06.9-1.29-1.24m-37.31,1.85c-1.81,2.56-4.39,3.85-5.75,2.9s-1-3.83.84-6.39,4.39-3.85,5.75-2.89,1,3.82-.84,6.38m91.36,3.12s-1.23.57-1.76,0-.06-1.57-.06-1.57L220,88.52h-5.27l-.8,1.45c-3.08-2.71-8.86-1.31-12.45,2.44A11.71,11.71,0,0,0,198,99.35a15.64,15.64,0,0,1-2.83,1.48s-1.23.57-1.76,0-.06-1.58-.06-1.58l9.17-18.86h-5.27l-4.81,9.46c-3.07-2.7-8.85-1.3-12.44,2.44a14.9,14.9,0,0,0-1.84,2.4v0a2,2,0,0,0-.11.2l-.32.58c-2.86,5-6.42,5.78-6.42,5.78-7.52,2.25-8.38-1.44-8.38-1.44,8.43-3.11,11.59-6.8,11.3-9.62s-4.17-3-4.17-3c-6.36-.38-11.87,4.07-13.21,8.43a8.05,8.05,0,0,0-.28,3.93,14.14,14.14,0,0,1-4,1.58c-2.12.67-2.38-.33-2.64-1s-1.21-6-1.21-6l8.94-5.85h-5.47l-6.72,4.17c-1.51.62-.92-1-.92-1l5.48-11.11h-5.27l-8.89,18a39.83,39.83,0,0,1-4.57,2.39s-1.23.57-1.77,0-.05-1.58-.05-1.58l5.16-10.85h-5.26l-.81,1.45c-3.07-2.7-8.85-1.3-12.44,2.44s-4.5,8.69-2,11c2,1.88,5.49,1.54,8.65-.6,0,0,.8-.69,1.24.12s2.26,2.73,6.44,1.08a29.86,29.86,0,0,0,3.57-1.71l-1.09,2.22h5.26l2.64-5.33,2.29-1.46s.7-.55,1,.63a38.12,38.12,0,0,0,1.58,5.07c.44.58,1.32,1.9,5,.84a66.54,66.54,0,0,0,6.88-2.42c1.23,1.7,3.62,2.87,7.52,2.87a18.3,18.3,0,0,0,11.57-4.19,4.55,4.55,0,0,0,1.34,2.88c2,1.88,5.48,1.54,8.65-.6,0,0,.81-.69,1.24.12s2.26,2.73,6.44,1.08a20.85,20.85,0,0,0,4-2,4.27,4.27,0,0,0,1,1.55c2,1.88,5.49,1.53,8.65-.6,0,0,.8-.69,1.24.12s2.26,2.72,6.44,1.08,5.37-3.15,5.37-3.15L220,99a15.51,15.51,0,0,1-3.44,1.9"/><path class="cls-3" d="M231.35,100.43S228.86,115,212.79,115H98.57c-16,0-18.32-14.67-18.32-14.67-.61-3.89.14-6.55,1.34-8.39,11.56-15.23,34.44-35.66,74-35.66,39.9,0,63,20.73,74.53,36C231.44,93.89,231.94,96.66,231.35,100.43Zm-75.71-46.7c-63.71,0-97.5,45.19-97.5,45.19L72,108.29a68.38,68.38,0,0,1,5.51-10.2,16.26,16.26,0,0,0,.22,2.56c2.45,19,20.91,18.54,20.91,18.54H213s18.7.51,21.14-18.47a14.15,14.15,0,0,0,.21-2.48,68,68,0,0,1,5.42,9.92l13.83-9.26s-34.28-45.17-98-45.17"/></g></g></g></svg>